<?xml version="1.0" encoding="UTF-8" standalone="no"?>
<!DOCTYPE svg PUBLIC "-//W3C//DTD SVG 1.1//EN"
 "http://www.w3.org/Graphics/SVG/1.1/DTD/svg11.dtd">
<!-- Generated by graphviz version 8.1.0 (20230707.0739)
 -->
<!-- Title: OVERVIEW Pages: 1 -->
<svg width="292pt" height="235pt"
 viewBox="0.00 0.00 292.00 235.00" xmlns="http://www.w3.org/2000/svg" xmlns:xlink="http://www.w3.org/1999/xlink">
<g id="graph0" class="graph" transform="scale(1 1) rotate(0) translate(4 231)">
<title>OVERVIEW</title>
<polygon fill="white" stroke="none" points="-4,4 -4,-231 288,-231 288,4 -4,4"/>
<g id="clust1" class="cluster">
<title>cluster_scc0</title>
<path fill="none" stroke="black" d="M20,-163C20,-163 167,-163 167,-163 173,-163 179,-169 179,-175 179,-175 179,-207 179,-207 179,-213 173,-219 167,-219 167,-219 20,-219 20,-219 14,-219 8,-213 8,-207 8,-207 8,-175 8,-175 8,-169 14,-163 20,-163"/>
</g>
<g id="clust2" class="cluster">
<title>cluster_scc1</title>
<path fill="none" stroke="black" d="M20,-8C20,-8 264,-8 264,-8 270,-8 276,-14 276,-20 276,-20 276,-79 276,-79 276,-85 270,-91 264,-91 264,-91 20,-91 20,-91 14,-91 8,-85 8,-79 8,-79 8,-20 8,-20 8,-14 14,-8 20,-8"/>
</g>
<g id="clust3" class="cluster">
<title>cluster_scc2</title>
<path fill="none" stroke="black" d="M20,-99C20,-99 70,-99 70,-99 76,-99 82,-105 82,-111 82,-111 82,-143 82,-143 82,-149 76,-155 70,-155 70,-155 20,-155 20,-155 14,-155 8,-149 8,-143 8,-143 8,-111 8,-111 8,-105 14,-99 20,-99"/>
</g>
<!-- n2 -->
<g id="node1" class="node">
<title>n2</title>
<polygon fill="none" stroke="black" points="72,-209 18,-209 18,-173 72,-173 72,-209"/>
<text text-anchor="middle" x="45" y="-187.45" font-family="monospace" font-size="14.00">D</text>
</g>
<!-- n1 -->
<g id="node2" class="node">
<title>n1</title>
<polygon fill="none" stroke="black" points="169,-209 115,-209 115,-173 169,-173 169,-209"/>
<text text-anchor="middle" x="142" y="-187.45" font-family="monospace" font-size="14.00">E</text>
</g>
<!-- n2&#45;&gt;n1 -->
<g id="edge4" class="edge">
<title>n2&#45;&gt;n1</title>
<path fill="none" stroke="black" d="M72.46,-182.84C82.14,-182.01 93.28,-181.8 103.72,-182.19"/>
<polygon fill="black" stroke="black" points="103.49,-185.74 113.68,-182.85 103.91,-178.75 103.49,-185.74"/>
</g>
<!-- n1&#45;&gt;n2 -->
<g id="edge3" class="edge">
<title>n1&#45;&gt;n2</title>
<path fill="none" stroke="black" d="M114.68,-199.83C105.02,-200.73 93.88,-200.97 83.43,-200.55"/>
<polygon fill="black" stroke="black" points="83.67,-197 73.46,-199.84 83.22,-203.98 83.67,-197"/>
</g>
<!-- n5 -->
<g id="node3" class="node">
<title>n5</title>
<polygon fill="none" stroke="black" points="72,-67 18,-67 18,-31 72,-31 72,-67"/>
<text text-anchor="middle" x="45" y="-45.45" font-family="monospace" font-size="14.00">B</text>
</g>
<!-- n3 -->
<g id="node5" class="node">
<title>n3</title>
<polygon fill="none" stroke="black" points="169,-81 115,-81 115,-45 169,-45 169,-81"/>
<text text-anchor="middle" x="142" y="-59.45" font-family="monospace" font-size="14.00">A</text>
</g>
<!-- n5&#45;&gt;n3 -->
<g id="edge7" class="edge">
<title>n5&#45;&gt;n3</title>
<path fill="none" stroke="black" d="M72.46,-52.9C82.24,-54.34 93.51,-56 104.05,-57.56"/>
<polygon fill="black" stroke="black" points="103.28,-61.13 113.68,-59.12 104.3,-54.2 103.28,-61.13"/>
</g>
<!-- n4 -->
<g id="node4" class="node">
<title>n4</title>
<polygon fill="none" stroke="black" points="266,-67 212,-67 212,-31 266,-31 266,-67"/>
<text text-anchor="middle" x="239" y="-45.45" font-family="monospace" font-size="14.00">C</text>
</g>
<!-- n4&#45;&gt;n5 -->
<g id="edge6" class="edge">
<title>n4&#45;&gt;n5</title>
<path fill="none" stroke="black" d="M211.62,-39.69C201.55,-36.59 189.87,-33.54 179,-32 150.83,-28.02 143.24,-28.57 115,-32 104.36,-33.29 93.01,-35.66 82.64,-38.23"/>
<polygon fill="black" stroke="black" points="82.05,-35.03 73.26,-40.95 83.82,-41.8 82.05,-35.03"/>
</g>
<!-- n3&#45;&gt;n4 -->
<g id="edge5" class="edge">
<title>n3&#45;&gt;n4</title>
<path fill="none" stroke="black" d="M169.46,-59.1C179.24,-57.66 190.51,-56 201.05,-54.44"/>
<polygon fill="black" stroke="black" points="201.3,-57.8 210.68,-52.88 200.28,-50.87 201.3,-57.8"/>
</g>
<!-- n0 -->
<g id="node6" class="node">
<title>n0</title>
<polygon fill="none" stroke="black" points="72,-145 18,-145 18,-109 72,-109 72,-145"/>
<text text-anchor="middle" x="45" y="-123.45" font-family="monospace" font-size="14.00">F</text>
</g>
<!-- n0&#45;&gt;n1 -->
<g id="edge1" class="edge">
<title>n0&#45;&gt;n1</title>
<path fill="none" stroke="black" d="M72.46,-144.83C82.76,-151.76 94.7,-159.81 105.71,-167.23"/>
<polygon fill="black" stroke="black" points="103.43,-170.58 113.68,-173.27 107.34,-164.78 103.43,-170.58"/>
</g>
<!-- n0&#45;&gt;n3 -->
<g id="edge2" class="edge">
<title>n0&#45;&gt;n3</title>
<path fill="none" stroke="black" d="M72.46,-109.17C82.76,-102.24 94.7,-94.19 105.71,-86.77"/>
<polygon fill="black" stroke="black" points="107.34,-89.22 113.68,-80.73 103.43,-83.42 107.34,-89.22"/>
</g>
</g>
</svg>
