<?xml version="1.0" encoding="UTF-8" standalone="no"?>
<!DOCTYPE svg PUBLIC "-//W3C//DTD SVG 1.1//EN"
 "http://www.w3.org/Graphics/SVG/1.1/DTD/svg11.dtd">
<!-- Generated by graphviz version 8.1.0 (20230707.0739)
 -->
<!-- Title: modules Pages: 1 -->
<svg width="657pt" height="537pt"
 viewBox="0.00 0.00 657.25 536.79" xmlns="http://www.w3.org/2000/svg" xmlns:xlink="http://www.w3.org/1999/xlink">
<g id="graph0" class="graph" transform="scale(1 1) rotate(0) translate(4 532.79)">
<title>modules</title>
<polygon fill="white" stroke="none" points="-4,4 -4,-532.79 653.25,-532.79 653.25,4 -4,4"/>
<g id="clust1" class="cluster">
<title>cluster_scc1</title>
<path fill="none" stroke="black" d="M221.25,-43.24C221.25,-43.24 629.25,-43.24 629.25,-43.24 635.25,-43.24 641.25,-49.24 641.25,-55.24 641.25,-55.24 641.25,-151.24 641.25,-151.24 641.25,-157.24 635.25,-163.24 629.25,-163.24 629.25,-163.24 221.25,-163.24 221.25,-163.24 215.25,-163.24 209.25,-157.24 209.25,-151.24 209.25,-151.24 209.25,-55.24 209.25,-55.24 209.25,-49.24 215.25,-43.24 221.25,-43.24"/>
</g>
<g id="clust2" class="cluster">
<title>cluster_scc2</title>
<path fill="none" stroke="black" d="M221.25,-371.24C221.25,-371.24 445.25,-371.24 445.25,-371.24 451.25,-371.24 457.25,-377.24 457.25,-383.24 457.25,-383.24 457.25,-405.24 457.25,-405.24 457.25,-411.24 451.25,-417.24 445.25,-417.24 445.25,-417.24 221.25,-417.24 221.25,-417.24 215.25,-417.24 209.25,-411.24 209.25,-405.24 209.25,-405.24 209.25,-383.24 209.25,-383.24 209.25,-377.24 215.25,-371.24 221.25,-371.24"/>
</g>
<!-- builder -->
<g id="node1" class="node">
<title>builder</title>
<polygon fill="none" stroke="black" points="84.25,-285.24 0,-285.24 0,-249.24 84.25,-249.24 84.25,-285.24"/>
<text text-anchor="middle" x="42.12" y="-263.29" font-family="monospace" font-size="16.00">builder</text>
</g>
<!-- F -->
<g id="node2" class="node">
<title>F</title>
<polygon fill="none" stroke="black" points="636.25,-412.24 582.25,-412.24 582.25,-376.24 636.25,-376.24 636.25,-412.24"/>
<text text-anchor="middle" x="609.25" y="-390.29" font-family="monospace" font-size="16.00">F</text>
</g>
<!-- builder&#45;&gt;F -->
<g id="edge6" class="edge">
<title>builder&#45;&gt;F</title>
<path fill="none" stroke="black" d="M49.08,-285.59C65.56,-332.91 116.79,-458.79 209.25,-507.24 335.58,-573.44 505.33,-469.52 575.64,-419.12"/>
<polygon fill="black" stroke="black" points="577.47,-421.39 583.5,-412.68 573.36,-415.73 577.47,-421.39"/>
</g>
<!-- A -->
<g id="node3" class="node">
<title>A</title>
<polygon fill="none" stroke="black" points="268.25,-158.24 214.25,-158.24 214.25,-122.24 268.25,-122.24 268.25,-158.24"/>
<text text-anchor="middle" x="241.25" y="-136.29" font-family="monospace" font-size="16.00">A</text>
</g>
<!-- builder&#45;&gt;A -->
<g id="edge7" class="edge">
<title>builder&#45;&gt;A</title>
<path fill="none" stroke="black" d="M71.79,-248.78C106.93,-226.13 166.5,-187.76 204.57,-163.23"/>
<polygon fill="black" stroke="black" points="206.25,-165.67 212.76,-157.31 202.46,-159.78 206.25,-165.67"/>
</g>
<!-- B -->
<g id="node4" class="node">
<title>B</title>
<polygon fill="none" stroke="black" points="452.25,-84.24 398.25,-84.24 398.25,-48.24 452.25,-48.24 452.25,-84.24"/>
<text text-anchor="middle" x="425.25" y="-62.29" font-family="monospace" font-size="16.00">B</text>
</g>
<!-- builder&#45;&gt;B -->
<g id="edge8" class="edge">
<title>builder&#45;&gt;B</title>
<path fill="none" stroke="black" d="M53.53,-248.78C76.18,-210.64 133.98,-123.58 209.25,-86.24 266.25,-57.97 342.17,-58.39 386.87,-61.89"/>
<polygon fill="black" stroke="black" points="386.53,-65.46 396.8,-62.86 387.15,-58.49 386.53,-65.46"/>
</g>
<!-- C -->
<g id="node5" class="node">
<title>C</title>
<polygon fill="none" stroke="black" points="636.25,-84.24 582.25,-84.24 582.25,-48.24 636.25,-48.24 636.25,-84.24"/>
<text text-anchor="middle" x="609.25" y="-62.29" font-family="monospace" font-size="16.00">C</text>
</g>
<!-- builder&#45;&gt;C -->
<g id="edge9" class="edge">
<title>builder&#45;&gt;C</title>
<path fill="none" stroke="black" d="M51.29,-249.01C71.39,-206.39 127.63,-100.01 209.25,-49.24 303.88,9.62 347.45,6.8 457.25,-12.24 497.86,-19.29 542,-36.24 572.01,-49.29"/>
<polygon fill="black" stroke="black" points="570.44,-52.87 581,-53.72 573.28,-46.47 570.44,-52.87"/>
</g>
<!-- D -->
<g id="node6" class="node">
<title>D</title>
<polygon fill="none" stroke="black" points="268.25,-412.24 214.25,-412.24 214.25,-376.24 268.25,-376.24 268.25,-412.24"/>
<text text-anchor="middle" x="241.25" y="-390.29" font-family="monospace" font-size="16.00">D</text>
</g>
<!-- builder&#45;&gt;D -->
<g id="edge10" class="edge">
<title>builder&#45;&gt;D</title>
<path fill="none" stroke="black" d="M71.79,-285.71C106.93,-308.35 166.5,-346.73 204.57,-371.26"/>
<polygon fill="black" stroke="black" points="202.46,-374.7 212.76,-377.18 206.25,-368.82 202.46,-374.7"/>
</g>
<!-- E -->
<g id="node7" class="node">
<title>E</title>
<polygon fill="none" stroke="black" points="452.25,-412.24 398.25,-412.24 398.25,-376.24 452.25,-376.24 452.25,-412.24"/>
<text text-anchor="middle" x="425.25" y="-390.29" font-family="monospace" font-size="16.00">E</text>
</g>
<!-- builder&#45;&gt;E -->
<g id="edge11" class="edge">
<title>builder&#45;&gt;E</title>
<path fill="none" stroke="black" d="M52.94,-285.67C74.84,-324.57 131.94,-414.26 209.25,-448.24 269.36,-474.66 344.83,-441.89 388.5,-417.08"/>
<polygon fill="black" stroke="black" points="389.98,-419.69 396.84,-411.62 386.44,-413.65 389.98,-419.69"/>
</g>
<!-- A&#45;&gt;F -->
<g id="edge14" class="edge">
<title>A&#45;&gt;F</title>
<path fill="none" stroke="black" d="M268.57,-158.51C333.33,-203.45 500.42,-319.41 573.34,-370.02"/>
<polygon fill="black" stroke="black" points="570.96,-373.32 581.17,-376.14 574.95,-367.56 570.96,-373.32"/>
</g>
<!-- A&#45;&gt;B -->
<g id="edge1" class="edge">
<title>A&#45;&gt;B</title>
<path fill="none" stroke="black" stroke-dasharray="5,2" d="M268.71,-129.48C300.12,-116.71 352.65,-95.35 387.87,-81.03"/>
<polygon fill="black" stroke="black" points="388.81,-84.02 396.75,-77.02 386.17,-77.54 388.81,-84.02"/>
</g>
<!-- B&#45;&gt;C -->
<g id="edge2" class="edge">
<title>B&#45;&gt;C</title>
<path fill="none" stroke="black" stroke-dasharray="5,2" d="M452.71,-66.24C483.85,-66.24 535.75,-66.24 570.96,-66.24"/>
<polygon fill="black" stroke="black" points="570.75,-69.74 580.75,-66.24 570.75,-62.74 570.75,-69.74"/>
</g>
<!-- C&#45;&gt;A -->
<g id="edge3" class="edge">
<title>C&#45;&gt;A</title>
<path fill="none" stroke="black" stroke-dasharray="5,2" d="M581.85,-77.98C552.17,-90.62 502.24,-110.27 457.25,-120.24 395.94,-133.83 322.8,-138.2 279.57,-139.6"/>
<polygon fill="black" stroke="black" points="279.62,-136.12 269.72,-139.9 279.82,-143.12 279.62,-136.12"/>
</g>
<!-- D&#45;&gt;B -->
<g id="edge12" class="edge">
<title>D&#45;&gt;B</title>
<path fill="none" stroke="black" stroke-dasharray="5,2" d="M252.29,-376.14C282.49,-321.72 372.59,-159.34 408.87,-93.97"/>
<polygon fill="black" stroke="black" points="412.22,-96.14 414.01,-85.69 406.1,-92.74 412.22,-96.14"/>
</g>
<!-- D&#45;&gt;E -->
<g id="edge4" class="edge">
<title>D&#45;&gt;E</title>
<path fill="none" stroke="black" stroke-dasharray="5,2" d="M264.57,-375.79C296.45,-365.41 355.21,-364.49 391.87,-373.02"/>
<polygon fill="black" stroke="black" points="390.47,-376.53 401.04,-375.82 392.33,-369.79 390.47,-376.53"/>
</g>
<!-- E&#45;&gt;F -->
<g id="edge13" class="edge">
<title>E&#45;&gt;F</title>
<path fill="none" stroke="black" d="M452.71,-394.24C483.85,-394.24 535.75,-394.24 570.96,-394.24"/>
<polygon fill="black" stroke="black" points="570.75,-397.74 580.75,-394.24 570.75,-390.74 570.75,-397.74"/>
</g>
<!-- E&#45;&gt;D -->
<g id="edge5" class="edge">
<title>E&#45;&gt;D</title>
<path fill="none" stroke="black" stroke-dasharray="5,2" d="M402.04,-412.67C370.21,-423.06 311.46,-424.01 274.75,-415.5"/>
<polygon fill="black" stroke="black" points="276.14,-411.97 265.57,-412.7 274.28,-418.72 276.14,-411.97"/>
</g>
</g>
</svg>
