<?xml version="1.0" encoding="UTF-8" standalone="no"?>
<!DOCTYPE svg PUBLIC "-//W3C//DTD SVG 1.1//EN"
 "http://www.w3.org/Graphics/SVG/1.1/DTD/svg11.dtd">
<!-- Generated by graphviz version 8.1.0 (20230707.0739)
 -->
<!-- Title: modules Pages: 1 -->
<svg width="1029pt" height="731pt"
 viewBox="0.00 0.00 1028.58 731.25" xmlns="http://www.w3.org/2000/svg" xmlns:xlink="http://www.w3.org/1999/xlink">
<g id="graph0" class="graph" transform="scale(1 1) rotate(0) translate(4 727.25)">
<title>modules</title>
<polygon fill="white" stroke="none" points="-4,4 -4,-727.25 1024.58,-727.25 1024.58,4 -4,4"/>
<g id="clust1" class="cluster">
<title>cluster_scc1</title>
<path fill="none" stroke="black" d="M340.93,-24.94C340.93,-24.94 996,-24.94 996,-24.94 1002,-24.94 1008,-30.94 1008,-36.94 1008,-36.94 1008,-201.58 1008,-201.58 1008,-207.58 1002,-213.58 996,-213.58 996,-213.58 340.93,-213.58 340.93,-213.58 334.93,-213.58 328.93,-207.58 328.93,-201.58 328.93,-201.58 328.93,-36.94 328.93,-36.94 328.93,-30.94 334.93,-24.94 340.93,-24.94"/>
</g>
<g id="clust2" class="cluster">
<title>cluster_scc2</title>
<path fill="none" stroke="black" d="M340.93,-540.54C340.93,-540.54 706.76,-540.54 706.76,-540.54 712.76,-540.54 718.76,-546.54 718.76,-552.54 718.76,-552.54 718.76,-600.85 718.76,-600.85 718.76,-606.85 712.76,-612.85 706.76,-612.85 706.76,-612.85 340.93,-612.85 340.93,-612.85 334.93,-612.85 328.93,-606.85 328.93,-600.85 328.93,-600.85 328.93,-552.54 328.93,-552.54 328.93,-546.54 334.93,-540.54 340.93,-540.54"/>
</g>
<!-- builder -->
<g id="node1" class="node">
<title>builder</title>
<polygon fill="none" stroke="black" points="108.12,-394.73 23.88,-394.73 23.88,-358.73 108.12,-358.73 108.12,-394.73"/>
<text text-anchor="middle" x="66" y="-372.78" font-family="monospace" font-size="16.00">builder</text>
</g>
<!-- F -->
<g id="node2" class="node">
<title>F</title>
<polygon fill="none" stroke="black" points="985,-594.73 931,-594.73 931,-558.73 985,-558.73 985,-594.73"/>
<text text-anchor="middle" x="958" y="-572.78" font-family="monospace" font-size="16.00">F</text>
</g>
<!-- builder&#45;&gt;F -->
<g id="edge6" class="edge">
<title>builder&#45;&gt;F</title>
<path fill="none" stroke="black" d="M76.01,-395.01C105.4,-452.22 204.83,-627.89 347,-691.73 550.87,-783.29 824.73,-651.05 921.41,-597.51"/>
<polygon fill="black" stroke="black" points="922.72,-600.23 929.73,-592.29 919.3,-594.12 922.72,-600.23"/>
</g>
<!-- A -->
<g id="node3" class="node">
<title>A</title>
<polygon fill="none" stroke="black" points="406,-195.73 352,-195.73 352,-159.73 406,-159.73 406,-195.73"/>
<text text-anchor="middle" x="379" y="-173.78" font-family="monospace" font-size="16.00">A</text>
</g>
<!-- builder&#45;&gt;A -->
<g id="edge7" class="edge">
<title>builder&#45;&gt;A</title>
<path fill="none" stroke="black" d="M95.7,-358.37C152.77,-321.85 280.34,-240.22 342.54,-200.42"/>
<polygon fill="black" stroke="black" points="344.05,-202.97 350.58,-194.64 340.28,-197.08 344.05,-202.97"/>
</g>
<!-- B -->
<g id="node4" class="node">
<title>B</title>
<polygon fill="none" stroke="black" points="695,-78.73 641,-78.73 641,-42.73 695,-42.73 695,-78.73"/>
<text text-anchor="middle" x="668" y="-56.78" font-family="monospace" font-size="16.00">B</text>
</g>
<!-- builder&#45;&gt;B -->
<g id="edge8" class="edge">
<title>builder&#45;&gt;B</title>
<path fill="none" stroke="black" d="M81.06,-358.47C118.56,-311.18 226.34,-184.2 347,-123.73 441.36,-76.45 567.96,-64.62 629.82,-61.69"/>
<polygon fill="black" stroke="black" points="629.76,-65.15 639.6,-61.23 629.46,-58.16 629.76,-65.15"/>
</g>
<!-- C -->
<g id="node5" class="node">
<title>C</title>
<polygon fill="none" stroke="black" points="985,-78.73 931,-78.73 931,-42.73 985,-42.73 985,-78.73"/>
<text text-anchor="middle" x="958" y="-56.78" font-family="monospace" font-size="16.00">C</text>
</g>
<!-- builder&#45;&gt;C -->
<g id="edge9" class="edge">
<title>builder&#45;&gt;C</title>
<path fill="none" stroke="black" d="M78.73,-358.48C113.13,-306.5 219.41,-156.6 347,-81.73 485.34,-0.56 540.47,9.85 700,-6.73 779.47,-14.99 870.57,-37.25 920.14,-50.47"/>
<polygon fill="black" stroke="black" points="919.08,-54.08 929.65,-53.3 920.91,-47.32 919.08,-54.08"/>
</g>
<!-- D -->
<g id="node6" class="node">
<title>D</title>
<polygon fill="none" stroke="black" points="406,-594.73 352,-594.73 352,-558.73 406,-558.73 406,-594.73"/>
<text text-anchor="middle" x="379" y="-572.78" font-family="monospace" font-size="16.00">D</text>
</g>
<!-- builder&#45;&gt;D -->
<g id="edge10" class="edge">
<title>builder&#45;&gt;D</title>
<path fill="none" stroke="black" d="M95.7,-395.19C152.77,-431.89 280.34,-513.93 342.54,-553.93"/>
<polygon fill="black" stroke="black" points="340.28,-557.28 350.58,-559.75 344.07,-551.39 340.28,-557.28"/>
</g>
<!-- E -->
<g id="node7" class="node">
<title>E</title>
<polygon fill="none" stroke="black" points="695,-594.73 641,-594.73 641,-558.73 695,-558.73 695,-594.73"/>
<text text-anchor="middle" x="668" y="-572.78" font-family="monospace" font-size="16.00">E</text>
</g>
<!-- builder&#45;&gt;E -->
<g id="edge11" class="edge">
<title>builder&#45;&gt;E</title>
<path fill="none" stroke="black" d="M79.41,-394.99C114.4,-444.62 219.64,-581.57 347,-630.73 445.13,-668.61 570.33,-622.52 630.92,-594.79"/>
<polygon fill="black" stroke="black" points="632.19,-597.59 639.77,-590.18 629.23,-591.25 632.19,-597.59"/>
</g>
<!-- A&#45;&gt;F -->
<g id="edge14" class="edge">
<title>A&#45;&gt;F</title>
<path fill="none" stroke="black" d="M406.29,-195.91C499.69,-260.5 815.58,-478.94 921.81,-552.4"/>
<polygon fill="black" stroke="black" points="919.34,-555.64 929.55,-558.45 923.32,-549.88 919.34,-555.64"/>
</g>
<!-- A&#45;&gt;B -->
<g id="edge1" class="edge">
<title>A&#45;&gt;B</title>
<path fill="none" stroke="black" stroke-dasharray="5,2" d="M406.49,-166.94C458.06,-145.91 572.05,-99.44 630.65,-75.55"/>
<polygon fill="black" stroke="black" points="631.64,-78.52 639.58,-71.5 629,-72.04 631.64,-78.52"/>
</g>
<!-- B&#45;&gt;C -->
<g id="edge2" class="edge">
<title>B&#45;&gt;C</title>
<path fill="none" stroke="black" stroke-dasharray="5,2" d="M695.32,-60.73C746.85,-60.73 861.14,-60.73 920.15,-60.73"/>
<polygon fill="black" stroke="black" points="919.84,-64.23 929.84,-60.73 919.84,-57.23 919.84,-64.23"/>
</g>
<!-- C&#45;&gt;A -->
<g id="edge3" class="edge">
<title>C&#45;&gt;A</title>
<path fill="none" stroke="black" stroke-dasharray="5,2" d="M930.75,-66.36C884.28,-76.31 784.44,-97.55 700,-114.73 597.57,-135.58 476.47,-159.12 416.89,-170.63"/>
<polygon fill="black" stroke="black" points="416.31,-167.37 407.15,-172.7 417.64,-174.24 416.31,-167.37"/>
</g>
<!-- D&#45;&gt;B -->
<g id="edge12" class="edge">
<title>D&#45;&gt;B</title>
<path fill="none" stroke="black" stroke-dasharray="5,2" d="M390.21,-558.37C433.19,-481.1 599.48,-182.13 651.41,-88.76"/>
<polygon fill="black" stroke="black" points="654.96,-90.59 656.76,-80.15 648.84,-87.18 654.96,-90.59"/>
</g>
<!-- D&#45;&gt;E -->
<g id="edge4" class="edge">
<title>D&#45;&gt;E</title>
<path fill="none" stroke="black" stroke-dasharray="5,2" d="M406.49,-560.28C457.85,-547.06 571.1,-546.27 629.92,-557.89"/>
<polygon fill="black" stroke="black" points="629.05,-561.51 639.58,-560.3 630.59,-554.68 629.05,-561.51"/>
</g>
<!-- E&#45;&gt;F -->
<g id="edge13" class="edge">
<title>E&#45;&gt;F</title>
<path fill="none" stroke="black" d="M695.32,-576.73C746.85,-576.73 861.14,-576.73 920.15,-576.73"/>
<polygon fill="black" stroke="black" points="919.84,-580.23 929.84,-576.73 919.84,-573.23 919.84,-580.23"/>
</g>
<!-- E&#45;&gt;D -->
<g id="edge5" class="edge">
<title>E&#45;&gt;D</title>
<path fill="none" stroke="black" stroke-dasharray="5,2" d="M640.58,-593.17C589.27,-606.4 476.02,-607.2 417.16,-595.59"/>
<polygon fill="black" stroke="black" points="418.01,-591.97 407.49,-593.19 416.47,-598.8 418.01,-591.97"/>
</g>
</g>
</svg>
