<?xml version="1.0" encoding="UTF-8" standalone="no"?>
<!DOCTYPE svg PUBLIC "-//W3C//DTD SVG 1.1//EN"
 "http://www.w3.org/Graphics/SVG/1.1/DTD/svg11.dtd">
<!-- Generated by graphviz version 8.1.0 (20230707.0739)
 -->
<!-- Title: modules Pages: 1 -->
<svg width="497pt" height="366pt"
 viewBox="0.00 0.00 496.75 366.08" xmlns="http://www.w3.org/2000/svg" xmlns:xlink="http://www.w3.org/1999/xlink">
<g id="graph0" class="graph" transform="scale(1 1) rotate(0) translate(4 362.08)">
<title>modules</title>
<polygon fill="white" stroke="none" points="-4,4 -4,-362.08 492.75,-362.08 492.75,4 -4,4"/>
<g id="clust1" class="cluster">
<title>cluster_scc1</title>
<path fill="none" stroke="black" d="M156.75,-27.96C156.75,-27.96 468.75,-27.96 468.75,-27.96 474.75,-27.96 480.75,-33.96 480.75,-39.96 480.75,-39.96 480.75,-112.96 480.75,-112.96 480.75,-118.96 474.75,-124.96 468.75,-124.96 468.75,-124.96 156.75,-124.96 156.75,-124.96 150.75,-124.96 144.75,-118.96 144.75,-112.96 144.75,-112.96 144.75,-39.96 144.75,-39.96 144.75,-33.96 150.75,-27.96 156.75,-27.96"/>
</g>
<g id="clust2" class="cluster">
<title>cluster_scc2</title>
<path fill="none" stroke="black" d="M156.75,-238.96C156.75,-238.96 335.75,-238.96 335.75,-238.96 341.75,-238.96 347.75,-244.96 347.75,-250.96 347.75,-250.96 347.75,-278.96 347.75,-278.96 347.75,-284.96 341.75,-290.96 335.75,-290.96 335.75,-290.96 156.75,-290.96 156.75,-290.96 150.75,-290.96 144.75,-284.96 144.75,-278.96 144.75,-278.96 144.75,-250.96 144.75,-250.96 144.75,-244.96 150.75,-238.96 156.75,-238.96"/>
</g>
<!-- builder -->
<g id="node1" class="node">
<title>builder</title>
<polygon fill="none" stroke="black" points="73.75,-199.96 0,-199.96 0,-163.96 73.75,-163.96 73.75,-199.96"/>
<text text-anchor="middle" x="36.88" y="-178.41" font-family="monospace" font-size="14.00">builder</text>
</g>
<!-- F -->
<g id="node2" class="node">
<title>F</title>
<polygon fill="none" stroke="black" points="472.75,-282.96 418.75,-282.96 418.75,-246.96 472.75,-246.96 472.75,-282.96"/>
<text text-anchor="middle" x="445.75" y="-261.41" font-family="monospace" font-size="14.00">F</text>
</g>
<!-- builder&#45;&gt;F -->
<g id="edge6" class="edge">
<title>builder&#45;&gt;F</title>
<path fill="none" stroke="black" d="M43.72,-200.35C55.95,-235.34 87.95,-310.7 144.75,-340.96 233.02,-387.98 351.53,-326.44 409.64,-289.35"/>
<polygon fill="black" stroke="black" points="411.3,-291.8 417.77,-283.41 407.48,-285.93 411.3,-291.8"/>
</g>
<!-- A -->
<g id="node3" class="node">
<title>A</title>
<polygon fill="none" stroke="black" points="206.75,-116.96 152.75,-116.96 152.75,-80.96 206.75,-80.96 206.75,-116.96"/>
<text text-anchor="middle" x="179.75" y="-95.41" font-family="monospace" font-size="14.00">A</text>
</g>
<!-- builder&#45;&gt;A -->
<g id="edge7" class="edge">
<title>builder&#45;&gt;A</title>
<path fill="none" stroke="black" d="M69.14,-163.54C90.99,-150.67 120.2,-133.45 142.98,-120.03"/>
<polygon fill="black" stroke="black" points="144.47,-122.63 151.3,-114.54 140.91,-116.6 144.47,-122.63"/>
</g>
<!-- B -->
<g id="node4" class="node">
<title>B</title>
<polygon fill="none" stroke="black" points="339.75,-71.96 285.75,-71.96 285.75,-35.96 339.75,-35.96 339.75,-71.96"/>
<text text-anchor="middle" x="312.75" y="-50.41" font-family="monospace" font-size="14.00">B</text>
</g>
<!-- builder&#45;&gt;B -->
<g id="edge8" class="edge">
<title>builder&#45;&gt;B</title>
<path fill="none" stroke="black" d="M47.38,-163.71C63.22,-135.49 97.95,-82.2 144.75,-59.96 185.89,-40.41 239.38,-42.58 274.6,-47.18"/>
<polygon fill="black" stroke="black" points="273.96,-50.77 284.36,-48.74 274.96,-43.84 273.96,-50.77"/>
</g>
<!-- C -->
<g id="node5" class="node">
<title>C</title>
<polygon fill="none" stroke="black" points="472.75,-71.96 418.75,-71.96 418.75,-35.96 472.75,-35.96 472.75,-71.96"/>
<text text-anchor="middle" x="445.75" y="-50.41" font-family="monospace" font-size="14.00">C</text>
</g>
<!-- builder&#45;&gt;C -->
<g id="edge9" class="edge">
<title>builder&#45;&gt;C</title>
<path fill="none" stroke="black" d="M45.22,-163.69C59.24,-131.44 93.09,-64.9 144.75,-33.96 222.49,12.61 258.78,2.26 347.75,-14.96 368.6,-18.99 390.66,-27.49 408.47,-35.52"/>
<polygon fill="black" stroke="black" points="406.88,-39.11 417.42,-40.17 409.83,-32.77 406.88,-39.11"/>
</g>
<!-- D -->
<g id="node6" class="node">
<title>D</title>
<polygon fill="none" stroke="black" points="206.75,-282.96 152.75,-282.96 152.75,-246.96 206.75,-246.96 206.75,-282.96"/>
<text text-anchor="middle" x="179.75" y="-261.41" font-family="monospace" font-size="14.00">D</text>
</g>
<!-- builder&#45;&gt;D -->
<g id="edge10" class="edge">
<title>builder&#45;&gt;D</title>
<path fill="none" stroke="black" d="M69.14,-200.38C90.99,-213.25 120.2,-230.46 142.98,-243.88"/>
<polygon fill="black" stroke="black" points="140.91,-247.32 151.3,-249.38 144.47,-241.28 140.91,-247.32"/>
</g>
<!-- E -->
<g id="node7" class="node">
<title>E</title>
<polygon fill="none" stroke="black" points="339.75,-282.96 285.75,-282.96 285.75,-246.96 339.75,-246.96 339.75,-282.96"/>
<text text-anchor="middle" x="312.75" y="-261.41" font-family="monospace" font-size="14.00">E</text>
</g>
<!-- builder&#45;&gt;E -->
<g id="edge11" class="edge">
<title>builder&#45;&gt;E</title>
<path fill="none" stroke="black" d="M46.99,-200.08C62.52,-228.68 97.13,-283.25 144.75,-304.96 187.65,-324.51 241.27,-304.65 276,-286.6"/>
<polygon fill="black" stroke="black" points="277.13,-289.42 284.27,-281.59 273.81,-283.27 277.13,-289.42"/>
</g>
<!-- A&#45;&gt;F -->
<g id="edge14" class="edge">
<title>A&#45;&gt;F</title>
<path fill="none" stroke="black" d="M207.03,-115.48C254.77,-145.5 355.74,-208.99 409.44,-242.75"/>
<polygon fill="black" stroke="black" points="407.25,-246.14 417.58,-248.5 410.98,-240.21 407.25,-246.14"/>
</g>
<!-- A&#45;&gt;B -->
<g id="edge1" class="edge">
<title>A&#45;&gt;B</title>
<path fill="none" stroke="black" stroke-dasharray="5,2" d="M206.94,-89.96C226.58,-83.21 253.69,-73.9 275.42,-66.44"/>
<polygon fill="black" stroke="black" points="276.28,-69.5 284.6,-62.94 274.01,-62.88 276.28,-69.5"/>
</g>
<!-- B&#45;&gt;C -->
<g id="edge2" class="edge">
<title>B&#45;&gt;C</title>
<path fill="none" stroke="black" stroke-dasharray="5,2" d="M339.94,-53.96C359.4,-53.96 386.2,-53.96 407.83,-53.96"/>
<polygon fill="black" stroke="black" points="407.6,-57.46 417.6,-53.96 407.6,-50.46 407.6,-57.46"/>
</g>
<!-- C&#45;&gt;A -->
<g id="edge3" class="edge">
<title>C&#45;&gt;A</title>
<path fill="none" stroke="black" stroke-dasharray="5,2" d="M418.41,-67.87C399.36,-77.16 372.69,-88.63 347.75,-93.96 303.92,-103.32 252.15,-103.2 218,-101.64"/>
<polygon fill="black" stroke="black" points="218.3,-98.1 208.13,-101.06 217.93,-105.09 218.3,-98.1"/>
</g>
<!-- D&#45;&gt;B -->
<g id="edge12" class="edge">
<title>D&#45;&gt;B</title>
<path fill="none" stroke="black" stroke-dasharray="5,2" d="M192.15,-246.6C215.18,-209.5 267.39,-125.41 294.57,-81.63"/>
<polygon fill="black" stroke="black" points="297.99,-83.76 300.29,-73.42 292.04,-80.07 297.99,-83.76"/>
</g>
<!-- D&#45;&gt;E -->
<g id="edge4" class="edge">
<title>D&#45;&gt;E</title>
<path fill="none" stroke="black" stroke-dasharray="5,2" d="M206.94,-252.06C226.4,-248.82 253.2,-248.34 274.83,-250.62"/>
<polygon fill="black" stroke="black" points="274.22,-254.21 284.6,-252.07 275.16,-247.27 274.22,-254.21"/>
</g>
<!-- E&#45;&gt;F -->
<g id="edge13" class="edge">
<title>E&#45;&gt;F</title>
<path fill="none" stroke="black" d="M339.94,-264.96C359.4,-264.96 386.2,-264.96 407.83,-264.96"/>
<polygon fill="black" stroke="black" points="407.6,-268.46 417.6,-264.96 407.6,-261.46 407.6,-268.46"/>
</g>
<!-- E&#45;&gt;D -->
<g id="edge5" class="edge">
<title>E&#45;&gt;D</title>
<path fill="none" stroke="black" stroke-dasharray="5,2" d="M285.6,-278.46C266.16,-281.86 239.36,-282.37 217.72,-279.98"/>
<polygon fill="black" stroke="black" points="218.33,-276.39 207.94,-278.47 217.36,-283.32 218.33,-276.39"/>
</g>
</g>
</svg>
